<mxfile host="app.diagrams.net" modified="2021-10-13T16:51:08.595Z" agent="5.0 (Windows NT 10.0; Win64; x64) AppleWebKit/537.36 (KHTML, like Gecko) Chrome/94.0.4606.71 Safari/537.36" etag="sX0jap9P1lyMWCJ-mjdl" version="15.5.1" type="github">
  <diagram id="pMJ0eaJiPwBfG1VSh_9_" name="Page-1">
    <mxGraphModel dx="1550" dy="779" grid="1" gridSize="10" guides="1" tooltips="1" connect="1" arrows="1" fold="1" page="1" pageScale="1" pageWidth="850" pageHeight="1100" math="0" shadow="0">
      <root>
        <mxCell id="0" />
        <mxCell id="1" parent="0" />
        <mxCell id="OgBr6SACym_tLIcFMbYo-1" style="edgeStyle=orthogonalEdgeStyle;rounded=0;orthogonalLoop=1;jettySize=auto;html=1;entryX=1;entryY=0.5;entryDx=0;entryDy=0;exitX=0;exitY=0.5;exitDx=0;exitDy=0;curved=1;labelBackgroundColor=#F1FAEE;strokeColor=#457B9D;fontColor=#1D3557;" edge="1" parent="1" source="OgBr6SACym_tLIcFMbYo-3" target="OgBr6SACym_tLIcFMbYo-7">
          <mxGeometry relative="1" as="geometry">
            <Array as="points">
              <mxPoint x="140" y="230" />
              <mxPoint x="140" y="140" />
              <mxPoint x="700" y="140" />
              <mxPoint x="700" y="230" />
            </Array>
          </mxGeometry>
        </mxCell>
        <mxCell id="OgBr6SACym_tLIcFMbYo-2" style="edgeStyle=orthogonalEdgeStyle;curved=1;rounded=0;orthogonalLoop=1;jettySize=auto;html=1;entryX=0;entryY=1;entryDx=0;entryDy=0;labelBackgroundColor=#F1FAEE;strokeColor=#457B9D;fontColor=#1D3557;" edge="1" parent="1" target="OgBr6SACym_tLIcFMbYo-7">
          <mxGeometry relative="1" as="geometry">
            <mxPoint x="150" y="230" as="sourcePoint" />
            <Array as="points">
              <mxPoint x="150" y="290" />
              <mxPoint x="440" y="290" />
            </Array>
          </mxGeometry>
        </mxCell>
        <mxCell id="OgBr6SACym_tLIcFMbYo-3" value="crc = 4byte" style="rounded=0;whiteSpace=wrap;html=1;fillColor=#A8DADC;strokeColor=#457B9D;fontColor=#1D3557;" vertex="1" parent="1">
          <mxGeometry x="160" y="200" width="160" height="60" as="geometry" />
        </mxCell>
        <mxCell id="OgBr6SACym_tLIcFMbYo-4" value="len = 2bytes" style="rounded=0;whiteSpace=wrap;html=1;fillColor=#A8DADC;strokeColor=#457B9D;fontColor=#1D3557;" vertex="1" parent="1">
          <mxGeometry x="320" y="200" width="80" height="60" as="geometry" />
        </mxCell>
        <mxCell id="OgBr6SACym_tLIcFMbYo-5" value="1type" style="rounded=0;whiteSpace=wrap;html=1;fillColor=#A8DADC;strokeColor=#457B9D;fontColor=#1D3557;" vertex="1" parent="1">
          <mxGeometry x="400" y="200" width="40" height="60" as="geometry" />
        </mxCell>
        <mxCell id="OgBr6SACym_tLIcFMbYo-6" style="edgeStyle=orthogonalEdgeStyle;curved=1;rounded=0;orthogonalLoop=1;jettySize=auto;html=1;labelBackgroundColor=#F1FAEE;strokeColor=#457B9D;fontColor=#1D3557;" edge="1" parent="1" source="OgBr6SACym_tLIcFMbYo-7">
          <mxGeometry relative="1" as="geometry">
            <mxPoint x="560" y="290" as="targetPoint" />
          </mxGeometry>
        </mxCell>
        <mxCell id="OgBr6SACym_tLIcFMbYo-7" value="data" style="rounded=0;whiteSpace=wrap;html=1;fillColor=#A8DADC;strokeColor=#457B9D;fontColor=#1D3557;" vertex="1" parent="1">
          <mxGeometry x="440" y="200" width="240" height="60" as="geometry" />
        </mxCell>
        <mxCell id="OgBr6SACym_tLIcFMbYo-8" value="&lt;div style=&quot;color: rgb(36 , 41 , 46) ; background-color: rgb(255 , 255 , 255) ; font-family: &amp;#34;consolas&amp;#34; , &amp;#34;courier new&amp;#34; , monospace ; font-size: 14px ; line-height: 19px&quot;&gt;record&lt;/div&gt;" style="text;html=1;align=center;verticalAlign=middle;resizable=0;points=[];autosize=1;strokeColor=none;fillColor=none;fontColor=#1D3557;" vertex="1" parent="1">
          <mxGeometry x="380" y="110" width="60" height="20" as="geometry" />
        </mxCell>
        <mxCell id="OgBr6SACym_tLIcFMbYo-9" value="&lt;div style=&quot;color: rgb(36 , 41 , 46) ; background-color: rgb(255 , 255 , 255) ; font-family: &amp;#34;consolas&amp;#34; , &amp;#34;courier new&amp;#34; , monospace ; font-size: 14px ; line-height: 19px&quot;&gt;body&lt;/div&gt;" style="text;html=1;align=center;verticalAlign=middle;resizable=0;points=[];autosize=1;strokeColor=none;fillColor=none;fontColor=#1D3557;" vertex="1" parent="1">
          <mxGeometry x="535" y="300" width="50" height="20" as="geometry" />
        </mxCell>
        <mxCell id="OgBr6SACym_tLIcFMbYo-10" value="&lt;div style=&quot;color: rgb(36 , 41 , 46) ; background-color: rgb(255 , 255 , 255) ; font-family: &amp;#34;consolas&amp;#34; , &amp;#34;courier new&amp;#34; , monospace ; font-size: 14px ; line-height: 19px&quot;&gt;header&lt;/div&gt;" style="text;html=1;align=center;verticalAlign=middle;resizable=0;points=[];autosize=1;strokeColor=none;fillColor=none;fontColor=#1D3557;" vertex="1" parent="1">
          <mxGeometry x="250" y="300" width="60" height="20" as="geometry" />
        </mxCell>
        <mxCell id="OgBr6SACym_tLIcFMbYo-11" value="crc = 4byte" style="rounded=0;whiteSpace=wrap;html=1;fillColor=#A8DADC;strokeColor=#457B9D;fontColor=#1D3557;" vertex="1" parent="1">
          <mxGeometry x="160" y="200" width="160" height="60" as="geometry" />
        </mxCell>
        <mxCell id="OgBr6SACym_tLIcFMbYo-12" value="data" style="rounded=0;whiteSpace=wrap;html=1;fillColor=#d5e8d4;strokeColor=#82b366;" vertex="1" parent="1">
          <mxGeometry x="440" y="200" width="240" height="60" as="geometry" />
        </mxCell>
        <mxCell id="OgBr6SACym_tLIcFMbYo-13" value="riverferry.site" style="text;html=1;align=center;verticalAlign=middle;resizable=0;points=[];autosize=1;strokeColor=none;fillColor=none;fontColor=#1D3557;" vertex="1" parent="1">
          <mxGeometry x="345" y="50" width="80" height="20" as="geometry" />
        </mxCell>
      </root>
    </mxGraphModel>
  </diagram>
</mxfile>
